<mxfile host="65bd71144e">
    <diagram id="fyk_FY3mrnsFkt_maUqV" name="第 1 页">
        <mxGraphModel dx="823" dy="433" grid="1" gridSize="10" guides="1" tooltips="1" connect="1" arrows="1" fold="1" page="1" pageScale="1" pageWidth="827" pageHeight="1169" math="0" shadow="0">
            <root>
                <mxCell id="0"/>
                <mxCell id="1" parent="0"/>
                <mxCell id="4" value="" style="edgeStyle=none;html=1;fontSize=24;" parent="1" source="2" target="3" edge="1">
                    <mxGeometry relative="1" as="geometry"/>
                </mxCell>
                <mxCell id="2" value="&lt;font style=&quot;font-size: 24px;&quot;&gt;开始&lt;/font&gt;" style="rounded=1;whiteSpace=wrap;html=1;" parent="1" vertex="1">
                    <mxGeometry x="320" y="20" width="120" height="60" as="geometry"/>
                </mxCell>
                <mxCell id="9" value="" style="edgeStyle=none;html=1;fontSize=18;" parent="1" source="3" edge="1">
                    <mxGeometry relative="1" as="geometry">
                        <mxPoint x="380" y="250" as="targetPoint"/>
                    </mxGeometry>
                </mxCell>
                <mxCell id="3" value="&lt;font style=&quot;font-size: 18px;&quot;&gt;系统资源初始化&lt;/font&gt;" style="rounded=0;whiteSpace=wrap;html=1;fontSize=24;" parent="1" vertex="1">
                    <mxGeometry x="320" y="130" width="120" height="60" as="geometry"/>
                </mxCell>
                <mxCell id="48" value="" style="edgeStyle=none;html=1;fontFamily=Helvetica;fontSize=14;fontColor=default;" edge="1" parent="1" source="8" target="47">
                    <mxGeometry relative="1" as="geometry"/>
                </mxCell>
                <mxCell id="8" value="&lt;font style=&quot;font-size: 14px;&quot;&gt;传感器模块获取环境参数&lt;/font&gt;" style="whiteSpace=wrap;html=1;fontSize=24;rounded=0;" parent="1" vertex="1">
                    <mxGeometry x="320" y="240" width="120" height="60" as="geometry"/>
                </mxCell>
                <mxCell id="12" value="控制模式判断" style="html=1;whiteSpace=wrap;aspect=fixed;shape=isoRectangle;fontSize=14;" parent="1" vertex="1">
                    <mxGeometry x="305" y="395" width="150" height="90" as="geometry"/>
                </mxCell>
                <mxCell id="15" value="" style="edgeStyle=elbowEdgeStyle;elbow=vertical;endArrow=classic;html=1;curved=0;rounded=0;endSize=8;startSize=8;fontSize=14;exitX=0.993;exitY=0.5;exitDx=0;exitDy=0;exitPerimeter=0;" parent="1" source="12" edge="1">
                    <mxGeometry width="50" height="50" relative="1" as="geometry">
                        <mxPoint x="460" y="480" as="sourcePoint"/>
                        <mxPoint x="560" y="490" as="targetPoint"/>
                        <Array as="points">
                            <mxPoint x="540" y="440"/>
                            <mxPoint x="560" y="440"/>
                            <mxPoint x="480" y="440"/>
                        </Array>
                    </mxGeometry>
                </mxCell>
                <mxCell id="16" value="" style="edgeStyle=elbowEdgeStyle;elbow=vertical;endArrow=classic;html=1;curved=0;rounded=0;endSize=8;startSize=8;fontSize=14;exitX=0.007;exitY=0.467;exitDx=0;exitDy=0;exitPerimeter=0;entryX=0.5;entryY=0;entryDx=0;entryDy=0;" parent="1" source="12" edge="1">
                    <mxGeometry width="50" height="50" relative="1" as="geometry">
                        <mxPoint x="310" y="600" as="sourcePoint"/>
                        <mxPoint x="200" y="490" as="targetPoint"/>
                        <Array as="points">
                            <mxPoint x="180" y="440"/>
                            <mxPoint x="240" y="440"/>
                        </Array>
                    </mxGeometry>
                </mxCell>
                <mxCell id="21" value="" style="edgeStyle=none;html=1;fontSize=14;" parent="1" source="18" edge="1">
                    <mxGeometry relative="1" as="geometry">
                        <mxPoint x="200" y="660" as="targetPoint"/>
                    </mxGeometry>
                </mxCell>
                <mxCell id="18" value="自动控制模式" style="shape=ext;double=1;rounded=0;whiteSpace=wrap;html=1;fontSize=14;" parent="1" vertex="1">
                    <mxGeometry x="140" y="490" width="120" height="80" as="geometry"/>
                </mxCell>
                <mxCell id="23" value="" style="edgeStyle=none;html=1;fontSize=14;" parent="1" source="19" edge="1">
                    <mxGeometry relative="1" as="geometry">
                        <mxPoint x="560" y="660" as="targetPoint"/>
                    </mxGeometry>
                </mxCell>
                <mxCell id="19" value="远程控制模式" style="shape=ext;double=1;rounded=0;whiteSpace=wrap;html=1;fontSize=14;" parent="1" vertex="1">
                    <mxGeometry x="500" y="490" width="120" height="80" as="geometry"/>
                </mxCell>
                <mxCell id="31" value="比较内置参数" style="html=1;whiteSpace=wrap;aspect=fixed;shape=isoRectangle;rounded=0;strokeColor=default;fontFamily=Helvetica;fontSize=14;fontColor=default;fillColor=default;" vertex="1" parent="1">
                    <mxGeometry x="125" y="660" width="150" height="90" as="geometry"/>
                </mxCell>
                <mxCell id="32" value="控制硬件" style="shape=ext;double=1;rounded=0;whiteSpace=wrap;html=1;strokeColor=default;fontFamily=Helvetica;fontSize=14;fontColor=default;fillColor=default;" vertex="1" parent="1">
                    <mxGeometry x="320" y="860" width="120" height="80" as="geometry"/>
                </mxCell>
                <mxCell id="33" value="等待远程命令" style="html=1;whiteSpace=wrap;aspect=fixed;shape=isoRectangle;rounded=0;strokeColor=default;fontFamily=Helvetica;fontSize=14;fontColor=default;fillColor=default;" vertex="1" parent="1">
                    <mxGeometry x="485" y="660" width="150" height="90" as="geometry"/>
                </mxCell>
                <mxCell id="34" value="" style="edgeStyle=elbowEdgeStyle;elbow=vertical;endArrow=classic;html=1;curved=0;rounded=0;endSize=8;startSize=8;fontFamily=Helvetica;fontSize=14;fontColor=default;entryX=0;entryY=0.5;entryDx=0;entryDy=0;exitX=0.51;exitY=0.978;exitDx=0;exitDy=0;exitPerimeter=0;" edge="1" parent="1" source="31" target="32">
                    <mxGeometry width="50" height="50" relative="1" as="geometry">
                        <mxPoint x="140" y="840" as="sourcePoint"/>
                        <mxPoint x="310" y="900" as="targetPoint"/>
                        <Array as="points">
                            <mxPoint x="270" y="900"/>
                        </Array>
                    </mxGeometry>
                </mxCell>
                <mxCell id="35" value="" style="edgeStyle=elbowEdgeStyle;elbow=vertical;endArrow=classic;html=1;curved=0;rounded=0;endSize=8;startSize=8;fontFamily=Helvetica;fontSize=14;fontColor=default;exitX=0.479;exitY=1.017;exitDx=0;exitDy=0;exitPerimeter=0;entryX=1;entryY=0.5;entryDx=0;entryDy=0;" edge="1" parent="1" source="33" target="32">
                    <mxGeometry width="50" height="50" relative="1" as="geometry">
                        <mxPoint x="460" y="780" as="sourcePoint"/>
                        <mxPoint x="470" y="900" as="targetPoint"/>
                        <Array as="points">
                            <mxPoint x="500" y="900"/>
                            <mxPoint x="580" y="840"/>
                        </Array>
                    </mxGeometry>
                </mxCell>
                <mxCell id="37" value="" style="edgeStyle=elbowEdgeStyle;elbow=vertical;endArrow=classic;html=1;curved=0;rounded=0;endSize=8;startSize=8;fontFamily=Helvetica;fontSize=14;fontColor=default;exitX=-0.005;exitY=0.507;exitDx=0;exitDy=0;exitPerimeter=0;" edge="1" parent="1" source="31">
                    <mxGeometry width="50" height="50" relative="1" as="geometry">
                        <mxPoint x="40" y="630" as="sourcePoint"/>
                        <mxPoint x="380" y="220" as="targetPoint"/>
                        <Array as="points">
                            <mxPoint x="350" y="220"/>
                            <mxPoint x="70" y="240"/>
                        </Array>
                    </mxGeometry>
                </mxCell>
                <mxCell id="38" value="" style="edgeStyle=elbowEdgeStyle;elbow=vertical;endArrow=classic;html=1;curved=0;rounded=0;endSize=8;startSize=8;fontFamily=Helvetica;fontSize=14;fontColor=default;exitX=1;exitY=0.502;exitDx=0;exitDy=0;exitPerimeter=0;" edge="1" parent="1" source="33">
                    <mxGeometry width="50" height="50" relative="1" as="geometry">
                        <mxPoint x="636" y="700" as="sourcePoint"/>
                        <mxPoint x="380" y="220" as="targetPoint"/>
                        <Array as="points">
                            <mxPoint x="510" y="220"/>
                        </Array>
                    </mxGeometry>
                </mxCell>
                <mxCell id="42" value="" style="edgeStyle=segmentEdgeStyle;endArrow=classic;html=1;curved=0;rounded=0;endSize=8;startSize=8;fontFamily=Helvetica;fontSize=14;fontColor=default;exitX=0.497;exitY=0.979;exitDx=0;exitDy=0;exitPerimeter=0;" edge="1" parent="1" source="12">
                    <mxGeometry width="50" height="50" relative="1" as="geometry">
                        <mxPoint x="350" y="500" as="sourcePoint"/>
                        <mxPoint x="390" y="1050" as="targetPoint"/>
                        <Array as="points">
                            <mxPoint x="380" y="590"/>
                            <mxPoint x="60" y="590"/>
                            <mxPoint x="60" y="1010"/>
                            <mxPoint x="390" y="1010"/>
                        </Array>
                    </mxGeometry>
                </mxCell>
                <mxCell id="44" value="结束" style="rounded=1;whiteSpace=wrap;html=1;strokeColor=default;fontFamily=Helvetica;fontSize=14;fontColor=default;fillColor=default;" vertex="1" parent="1">
                    <mxGeometry x="330" y="1050" width="120" height="60" as="geometry"/>
                </mxCell>
                <mxCell id="45" value="" style="edgeStyle=segmentEdgeStyle;endArrow=classic;html=1;curved=0;rounded=0;endSize=8;startSize=8;fontFamily=Helvetica;fontSize=14;fontColor=default;exitX=0.5;exitY=1;exitDx=0;exitDy=0;" edge="1" parent="1" source="32">
                    <mxGeometry width="50" height="50" relative="1" as="geometry">
                        <mxPoint x="370" y="990" as="sourcePoint"/>
                        <mxPoint x="630" y="240" as="targetPoint"/>
                        <Array as="points">
                            <mxPoint x="380" y="980"/>
                            <mxPoint x="730" y="980"/>
                            <mxPoint x="730" y="240"/>
                        </Array>
                    </mxGeometry>
                </mxCell>
                <mxCell id="47" value="传输参数至&lt;br&gt;云服务器" style="rounded=0;whiteSpace=wrap;html=1;strokeColor=default;fontFamily=Helvetica;fontSize=14;fontColor=default;fillColor=default;" vertex="1" parent="1">
                    <mxGeometry x="320" y="320" width="120" height="60" as="geometry"/>
                </mxCell>
                <mxCell id="49" value="" style="endArrow=classic;html=1;fontFamily=Helvetica;fontSize=14;fontColor=default;exitX=0.5;exitY=1;exitDx=0;exitDy=0;" edge="1" parent="1" source="47" target="12">
                    <mxGeometry width="50" height="50" relative="1" as="geometry">
                        <mxPoint x="480" y="490" as="sourcePoint"/>
                        <mxPoint x="480" y="400" as="targetPoint"/>
                    </mxGeometry>
                </mxCell>
            </root>
        </mxGraphModel>
    </diagram>
</mxfile>